<mxfile host="Electron" modified="2023-12-03T02:39:53.735Z" agent="Mozilla/5.0 (Windows NT 10.0; Win64; x64) AppleWebKit/537.36 (KHTML, like Gecko) draw.io/22.0.3 Chrome/114.0.5735.289 Electron/25.8.4 Safari/537.36" etag="WUgHFvVM3v_5qXi9JW5p" version="22.0.3" type="device">
  <diagram name="Page-1" id="PcWPR516uxxaKdIzjGIN">
    <mxGraphModel dx="1728" dy="1003" grid="1" gridSize="10" guides="1" tooltips="1" connect="1" arrows="1" fold="1" page="1" pageScale="1" pageWidth="850" pageHeight="1100" math="0" shadow="0">
      <root>
        <mxCell id="0" />
        <mxCell id="1" parent="0" />
        <mxCell id="-ml8gp1YGuy2Me6vcU-1-1" value="" style="shape=umlLifeline;participant=umlActor;perimeter=lifelinePerimeter;whiteSpace=wrap;html=1;container=1;collapsible=0;recursiveResize=0;verticalAlign=top;spacingTop=36;labelBackgroundColor=#ffffff;outlineConnect=0;strokeColor=#000066;fillColor=#FF8000;fontFamily=Tahoma;fontSize=14;fontColor=#000066;" parent="1" vertex="1">
          <mxGeometry x="110" y="50" width="20" height="1760" as="geometry" />
        </mxCell>
        <mxCell id="-ml8gp1YGuy2Me6vcU-1-2" value="Staff" style="text;html=1;align=center;verticalAlign=middle;resizable=0;points=[];autosize=1;strokeColor=none;fillColor=none;" parent="1" vertex="1">
          <mxGeometry x="95" y="20" width="50" height="30" as="geometry" />
        </mxCell>
        <mxCell id="-ml8gp1YGuy2Me6vcU-1-3" value="start app" style="html=1;verticalAlign=bottom;startArrow=oval;startFill=1;endArrow=block;startSize=8;strokeColor=#FF8000;fontFamily=Tahoma;fontSize=10;fontColor=#000066;" parent="1" edge="1">
          <mxGeometry width="60" relative="1" as="geometry">
            <mxPoint x="70" y="110" as="sourcePoint" />
            <mxPoint x="119.50000000000023" y="110" as="targetPoint" />
          </mxGeometry>
        </mxCell>
        <mxCell id="-ml8gp1YGuy2Me6vcU-1-4" value="Opt" style="shape=umlFrame;whiteSpace=wrap;html=1;pointerEvents=0;" parent="1" vertex="1">
          <mxGeometry x="60" y="130" width="290" height="370" as="geometry" />
        </mxCell>
        <mxCell id="-ml8gp1YGuy2Me6vcU-1-5" value="Package Management&lt;br style=&quot;border-color: var(--border-color);&quot;&gt;App" style="shape=umlLifeline;perimeter=lifelinePerimeter;whiteSpace=wrap;html=1;container=0;dropTarget=0;collapsible=0;recursiveResize=0;outlineConnect=0;portConstraint=eastwest;newEdgeStyle={&quot;edgeStyle&quot;:&quot;elbowEdgeStyle&quot;,&quot;elbow&quot;:&quot;vertical&quot;,&quot;curved&quot;:0,&quot;rounded&quot;:0};" parent="1" vertex="1">
          <mxGeometry x="250" y="50" width="100" height="1760" as="geometry" />
        </mxCell>
        <mxCell id="-ml8gp1YGuy2Me6vcU-1-6" style="edgeStyle=elbowEdgeStyle;rounded=0;orthogonalLoop=1;jettySize=auto;html=1;elbow=vertical;curved=0;" parent="1" edge="1">
          <mxGeometry relative="1" as="geometry">
            <mxPoint x="125" y="169.99666666666673" as="sourcePoint" />
            <mxPoint x="299.5000000000002" y="169.99666666666673" as="targetPoint" />
          </mxGeometry>
        </mxCell>
        <mxCell id="-ml8gp1YGuy2Me6vcU-1-7" value="Register new account" style="edgeLabel;html=1;align=center;verticalAlign=middle;resizable=0;points=[];" parent="-ml8gp1YGuy2Me6vcU-1-6" connectable="0" vertex="1">
          <mxGeometry x="-0.1684" relative="1" as="geometry">
            <mxPoint y="-10" as="offset" />
          </mxGeometry>
        </mxCell>
        <mxCell id="-ml8gp1YGuy2Me6vcU-1-8" value="" style="html=1;points=[];perimeter=orthogonalPerimeter;outlineConnect=0;targetShapes=umlLifeline;portConstraint=eastwest;newEdgeStyle={&quot;edgeStyle&quot;:&quot;elbowEdgeStyle&quot;,&quot;elbow&quot;:&quot;vertical&quot;,&quot;curved&quot;:0,&quot;rounded&quot;:0};fillColor=#FF8000;" parent="1" vertex="1">
          <mxGeometry x="115" y="180" width="10" height="1600" as="geometry" />
        </mxCell>
        <mxCell id="-ml8gp1YGuy2Me6vcU-1-9" value="" style="endArrow=classic;html=1;rounded=0;strokeColor=#FF8000;" parent="1" edge="1">
          <mxGeometry width="50" height="50" relative="1" as="geometry">
            <mxPoint x="120.08666666666676" y="118.57999999999998" as="sourcePoint" />
            <mxPoint x="299.92000000000024" y="118.57999999999998" as="targetPoint" />
          </mxGeometry>
        </mxCell>
        <mxCell id="-ml8gp1YGuy2Me6vcU-1-10" value="Login()" style="edgeLabel;html=1;align=center;verticalAlign=middle;resizable=0;points=[];" parent="-ml8gp1YGuy2Me6vcU-1-9" connectable="0" vertex="1">
          <mxGeometry x="-0.1344" y="-3" relative="1" as="geometry">
            <mxPoint y="-13" as="offset" />
          </mxGeometry>
        </mxCell>
        <mxCell id="-ml8gp1YGuy2Me6vcU-1-11" style="edgeStyle=orthogonalEdgeStyle;rounded=0;orthogonalLoop=1;jettySize=auto;html=1;dashed=1;" parent="1" source="-ml8gp1YGuy2Me6vcU-1-13" edge="1">
          <mxGeometry relative="1" as="geometry">
            <Array as="points">
              <mxPoint x="160" y="190" />
              <mxPoint x="160" y="190" />
            </Array>
            <mxPoint x="125" y="190" as="targetPoint" />
          </mxGeometry>
        </mxCell>
        <mxCell id="-ml8gp1YGuy2Me6vcU-1-12" value="Resident info to Create" style="edgeLabel;html=1;align=center;verticalAlign=middle;resizable=0;points=[];" parent="-ml8gp1YGuy2Me6vcU-1-11" connectable="0" vertex="1">
          <mxGeometry x="-0.1863" y="-1" relative="1" as="geometry">
            <mxPoint x="-21" y="1" as="offset" />
          </mxGeometry>
        </mxCell>
        <mxCell id="-ml8gp1YGuy2Me6vcU-1-13" value="" style="html=1;points=[];perimeter=orthogonalPerimeter;strokeColor=#000066;fillColor=#FF8000;fontFamily=Tahoma;fontSize=10;fontColor=#000066;align=center;" parent="1" vertex="1">
          <mxGeometry x="295" y="170" width="10" height="19" as="geometry" />
        </mxCell>
        <mxCell id="-ml8gp1YGuy2Me6vcU-1-14" value="Opt" style="shape=umlFrame;whiteSpace=wrap;html=1;pointerEvents=0;" parent="1" vertex="1">
          <mxGeometry x="85" y="220" width="240" height="80" as="geometry" />
        </mxCell>
        <mxCell id="-ml8gp1YGuy2Me6vcU-1-15" value="" style="endArrow=classic;html=1;rounded=0;" parent="1" edge="1">
          <mxGeometry width="50" height="50" relative="1" as="geometry">
            <mxPoint x="125" y="259.76" as="sourcePoint" />
            <mxPoint x="299.5" y="259.76" as="targetPoint" />
            <Array as="points">
              <mxPoint x="190" y="259.76" />
            </Array>
          </mxGeometry>
        </mxCell>
        <mxCell id="-ml8gp1YGuy2Me6vcU-1-16" value="Resident Name register" style="edgeLabel;html=1;align=center;verticalAlign=middle;resizable=0;points=[];" parent="-ml8gp1YGuy2Me6vcU-1-15" connectable="0" vertex="1">
          <mxGeometry x="-0.3494" y="1" relative="1" as="geometry">
            <mxPoint x="23" y="1" as="offset" />
          </mxGeometry>
        </mxCell>
        <mxCell id="-ml8gp1YGuy2Me6vcU-1-17" value="" style="html=1;points=[];perimeter=orthogonalPerimeter;strokeColor=#000066;fillColor=#FF8000;fontFamily=Tahoma;fontSize=10;fontColor=#000066;align=center;" parent="1" vertex="1">
          <mxGeometry x="295" y="260" width="10" height="19" as="geometry" />
        </mxCell>
        <mxCell id="-ml8gp1YGuy2Me6vcU-1-18" value="Opt" style="shape=umlFrame;whiteSpace=wrap;html=1;pointerEvents=0;" parent="1" vertex="1">
          <mxGeometry x="85" y="310" width="240" height="80" as="geometry" />
        </mxCell>
        <mxCell id="-ml8gp1YGuy2Me6vcU-1-19" value="" style="endArrow=classic;html=1;rounded=0;" parent="1" edge="1">
          <mxGeometry width="50" height="50" relative="1" as="geometry">
            <mxPoint x="125" y="349.76" as="sourcePoint" />
            <mxPoint x="299.5" y="349.76" as="targetPoint" />
            <Array as="points">
              <mxPoint x="190" y="349.76" />
            </Array>
          </mxGeometry>
        </mxCell>
        <mxCell id="-ml8gp1YGuy2Me6vcU-1-20" value="Resident Unit # Register" style="edgeLabel;html=1;align=center;verticalAlign=middle;resizable=0;points=[];" parent="-ml8gp1YGuy2Me6vcU-1-19" connectable="0" vertex="1">
          <mxGeometry x="-0.3494" y="1" relative="1" as="geometry">
            <mxPoint x="23" y="1" as="offset" />
          </mxGeometry>
        </mxCell>
        <mxCell id="-ml8gp1YGuy2Me6vcU-1-21" value="" style="html=1;points=[];perimeter=orthogonalPerimeter;strokeColor=#000066;fillColor=#FF8000;fontFamily=Tahoma;fontSize=10;fontColor=#000066;align=center;" parent="1" vertex="1">
          <mxGeometry x="295" y="350" width="10" height="19" as="geometry" />
        </mxCell>
        <mxCell id="-ml8gp1YGuy2Me6vcU-1-22" value="Opt" style="shape=umlFrame;whiteSpace=wrap;html=1;pointerEvents=0;" parent="1" vertex="1">
          <mxGeometry x="85" y="405" width="240" height="80" as="geometry" />
        </mxCell>
        <mxCell id="-ml8gp1YGuy2Me6vcU-1-23" value="" style="endArrow=classic;html=1;rounded=0;" parent="1" edge="1">
          <mxGeometry width="50" height="50" relative="1" as="geometry">
            <mxPoint x="125" y="444.76" as="sourcePoint" />
            <mxPoint x="299.5" y="444.76" as="targetPoint" />
            <Array as="points" />
          </mxGeometry>
        </mxCell>
        <mxCell id="-ml8gp1YGuy2Me6vcU-1-24" value="Resident Email Register" style="edgeLabel;html=1;align=center;verticalAlign=middle;resizable=0;points=[];" parent="-ml8gp1YGuy2Me6vcU-1-23" connectable="0" vertex="1">
          <mxGeometry x="-0.3494" y="1" relative="1" as="geometry">
            <mxPoint x="23" y="1" as="offset" />
          </mxGeometry>
        </mxCell>
        <mxCell id="-ml8gp1YGuy2Me6vcU-1-25" value="" style="html=1;points=[];perimeter=orthogonalPerimeter;strokeColor=#000066;fillColor=#FF8000;fontFamily=Tahoma;fontSize=10;fontColor=#000066;align=center;" parent="1" vertex="1">
          <mxGeometry x="295" y="445" width="10" height="19" as="geometry" />
        </mxCell>
        <mxCell id="-ml8gp1YGuy2Me6vcU-1-26" value="Opt" style="shape=umlFrame;whiteSpace=wrap;html=1;pointerEvents=0;" parent="1" vertex="1">
          <mxGeometry x="60" y="530" width="290" height="180" as="geometry" />
        </mxCell>
        <mxCell id="-ml8gp1YGuy2Me6vcU-1-27" style="edgeStyle=elbowEdgeStyle;rounded=0;orthogonalLoop=1;jettySize=auto;html=1;elbow=vertical;curved=0;" parent="1" edge="1">
          <mxGeometry relative="1" as="geometry">
            <mxPoint x="125" y="563.9966666666667" as="sourcePoint" />
            <mxPoint x="299.5000000000002" y="563.9966666666667" as="targetPoint" />
          </mxGeometry>
        </mxCell>
        <mxCell id="-ml8gp1YGuy2Me6vcU-1-28" value="Search Package" style="edgeLabel;html=1;align=center;verticalAlign=middle;resizable=0;points=[];" parent="-ml8gp1YGuy2Me6vcU-1-27" connectable="0" vertex="1">
          <mxGeometry x="-0.1684" relative="1" as="geometry">
            <mxPoint x="8" y="-10" as="offset" />
          </mxGeometry>
        </mxCell>
        <mxCell id="-ml8gp1YGuy2Me6vcU-1-29" style="edgeStyle=orthogonalEdgeStyle;rounded=0;orthogonalLoop=1;jettySize=auto;html=1;dashed=1;" parent="1" source="-ml8gp1YGuy2Me6vcU-1-31" edge="1">
          <mxGeometry relative="1" as="geometry">
            <mxPoint x="125" y="584" as="targetPoint" />
            <Array as="points">
              <mxPoint x="160" y="584" />
              <mxPoint x="160" y="584" />
            </Array>
          </mxGeometry>
        </mxCell>
        <mxCell id="-ml8gp1YGuy2Me6vcU-1-30" value="Package" style="edgeLabel;html=1;align=center;verticalAlign=middle;resizable=0;points=[];" parent="-ml8gp1YGuy2Me6vcU-1-29" connectable="0" vertex="1">
          <mxGeometry x="-0.1863" y="-1" relative="1" as="geometry">
            <mxPoint x="-21" y="1" as="offset" />
          </mxGeometry>
        </mxCell>
        <mxCell id="-ml8gp1YGuy2Me6vcU-1-31" value="" style="html=1;points=[];perimeter=orthogonalPerimeter;strokeColor=#000066;fillColor=#FF8000;fontFamily=Tahoma;fontSize=10;fontColor=#000066;align=center;" parent="1" vertex="1">
          <mxGeometry x="295" y="564" width="10" height="19" as="geometry" />
        </mxCell>
        <mxCell id="-ml8gp1YGuy2Me6vcU-1-32" value="Opt" style="shape=umlFrame;whiteSpace=wrap;html=1;pointerEvents=0;" parent="1" vertex="1">
          <mxGeometry x="85" y="614" width="240" height="80" as="geometry" />
        </mxCell>
        <mxCell id="-ml8gp1YGuy2Me6vcU-1-33" value="" style="endArrow=classic;html=1;rounded=0;" parent="1" edge="1">
          <mxGeometry width="50" height="50" relative="1" as="geometry">
            <mxPoint x="125" y="653.76" as="sourcePoint" />
            <mxPoint x="299.5" y="653.76" as="targetPoint" />
            <Array as="points">
              <mxPoint x="190" y="653.76" />
            </Array>
          </mxGeometry>
        </mxCell>
        <mxCell id="-ml8gp1YGuy2Me6vcU-1-34" value="Remove Pending Package" style="edgeLabel;html=1;align=center;verticalAlign=middle;resizable=0;points=[];" parent="-ml8gp1YGuy2Me6vcU-1-33" connectable="0" vertex="1">
          <mxGeometry x="-0.3494" y="1" relative="1" as="geometry">
            <mxPoint x="23" y="1" as="offset" />
          </mxGeometry>
        </mxCell>
        <mxCell id="-ml8gp1YGuy2Me6vcU-1-35" value="" style="html=1;points=[];perimeter=orthogonalPerimeter;strokeColor=#000066;fillColor=#FF8000;fontFamily=Tahoma;fontSize=10;fontColor=#000066;align=center;" parent="1" vertex="1">
          <mxGeometry x="295" y="654" width="10" height="19" as="geometry" />
        </mxCell>
        <mxCell id="-ml8gp1YGuy2Me6vcU-1-50" value="Opt" style="shape=umlFrame;whiteSpace=wrap;html=1;pointerEvents=0;" parent="1" vertex="1">
          <mxGeometry x="60" y="720" width="290" height="450" as="geometry" />
        </mxCell>
        <mxCell id="-ml8gp1YGuy2Me6vcU-1-51" style="edgeStyle=elbowEdgeStyle;rounded=0;orthogonalLoop=1;jettySize=auto;html=1;elbow=vertical;curved=0;" parent="1" edge="1">
          <mxGeometry relative="1" as="geometry">
            <mxPoint x="125" y="749.9966666666667" as="sourcePoint" />
            <mxPoint x="299.5000000000002" y="749.9966666666667" as="targetPoint" />
          </mxGeometry>
        </mxCell>
        <mxCell id="-ml8gp1YGuy2Me6vcU-1-52" value="Search Resident" style="edgeLabel;html=1;align=center;verticalAlign=middle;resizable=0;points=[];" parent="-ml8gp1YGuy2Me6vcU-1-51" connectable="0" vertex="1">
          <mxGeometry x="-0.1684" relative="1" as="geometry">
            <mxPoint x="8" y="-10" as="offset" />
          </mxGeometry>
        </mxCell>
        <mxCell id="-ml8gp1YGuy2Me6vcU-1-53" style="edgeStyle=orthogonalEdgeStyle;rounded=0;orthogonalLoop=1;jettySize=auto;html=1;dashed=1;" parent="1" source="-ml8gp1YGuy2Me6vcU-1-55" edge="1">
          <mxGeometry relative="1" as="geometry">
            <mxPoint x="125" y="770" as="targetPoint" />
            <Array as="points">
              <mxPoint x="160" y="770" />
              <mxPoint x="160" y="770" />
            </Array>
          </mxGeometry>
        </mxCell>
        <mxCell id="-ml8gp1YGuy2Me6vcU-1-54" value="Resident Info" style="edgeLabel;html=1;align=center;verticalAlign=middle;resizable=0;points=[];" parent="-ml8gp1YGuy2Me6vcU-1-53" connectable="0" vertex="1">
          <mxGeometry x="-0.1863" y="-1" relative="1" as="geometry">
            <mxPoint x="-21" y="1" as="offset" />
          </mxGeometry>
        </mxCell>
        <mxCell id="-ml8gp1YGuy2Me6vcU-1-55" value="" style="html=1;points=[];perimeter=orthogonalPerimeter;strokeColor=#000066;fillColor=#FF8000;fontFamily=Tahoma;fontSize=10;fontColor=#000066;align=center;" parent="1" vertex="1">
          <mxGeometry x="295" y="750" width="10" height="19" as="geometry" />
        </mxCell>
        <mxCell id="-ml8gp1YGuy2Me6vcU-1-56" value="Opt" style="shape=umlFrame;whiteSpace=wrap;html=1;pointerEvents=0;" parent="1" vertex="1">
          <mxGeometry x="85" y="800" width="240" height="80" as="geometry" />
        </mxCell>
        <mxCell id="-ml8gp1YGuy2Me6vcU-1-57" value="" style="endArrow=classic;html=1;rounded=0;" parent="1" edge="1">
          <mxGeometry width="50" height="50" relative="1" as="geometry">
            <mxPoint x="125" y="839.76" as="sourcePoint" />
            <mxPoint x="299.5" y="839.76" as="targetPoint" />
            <Array as="points">
              <mxPoint x="190" y="839.76" />
            </Array>
          </mxGeometry>
        </mxCell>
        <mxCell id="-ml8gp1YGuy2Me6vcU-1-58" value="Package History" style="edgeLabel;html=1;align=center;verticalAlign=middle;resizable=0;points=[];" parent="-ml8gp1YGuy2Me6vcU-1-57" connectable="0" vertex="1">
          <mxGeometry x="-0.3494" y="1" relative="1" as="geometry">
            <mxPoint x="23" y="1" as="offset" />
          </mxGeometry>
        </mxCell>
        <mxCell id="-ml8gp1YGuy2Me6vcU-1-59" value="" style="html=1;points=[];perimeter=orthogonalPerimeter;strokeColor=#000066;fillColor=#FF8000;fontFamily=Tahoma;fontSize=10;fontColor=#000066;align=center;" parent="1" vertex="1">
          <mxGeometry x="295" y="840" width="10" height="19" as="geometry" />
        </mxCell>
        <mxCell id="-ml8gp1YGuy2Me6vcU-1-60" value="Opt" style="shape=umlFrame;whiteSpace=wrap;html=1;pointerEvents=0;" parent="1" vertex="1">
          <mxGeometry x="85" y="890" width="240" height="80" as="geometry" />
        </mxCell>
        <mxCell id="-ml8gp1YGuy2Me6vcU-1-61" value="" style="endArrow=classic;html=1;rounded=0;" parent="1" edge="1">
          <mxGeometry width="50" height="50" relative="1" as="geometry">
            <mxPoint x="125" y="929.76" as="sourcePoint" />
            <mxPoint x="299.5" y="929.76" as="targetPoint" />
            <Array as="points">
              <mxPoint x="190" y="929.76" />
            </Array>
          </mxGeometry>
        </mxCell>
        <mxCell id="-ml8gp1YGuy2Me6vcU-1-62" value="Select Resident Postal Service Agency" style="edgeLabel;html=1;align=center;verticalAlign=middle;resizable=0;points=[];" parent="-ml8gp1YGuy2Me6vcU-1-61" connectable="0" vertex="1">
          <mxGeometry x="-0.3494" y="1" relative="1" as="geometry">
            <mxPoint x="48" y="-9" as="offset" />
          </mxGeometry>
        </mxCell>
        <mxCell id="-ml8gp1YGuy2Me6vcU-1-63" value="" style="html=1;points=[];perimeter=orthogonalPerimeter;strokeColor=#000066;fillColor=#FF8000;fontFamily=Tahoma;fontSize=10;fontColor=#000066;align=center;" parent="1" vertex="1">
          <mxGeometry x="295" y="930" width="10" height="19" as="geometry" />
        </mxCell>
        <mxCell id="-ml8gp1YGuy2Me6vcU-1-64" value="Opt" style="shape=umlFrame;whiteSpace=wrap;html=1;pointerEvents=0;" parent="1" vertex="1">
          <mxGeometry x="85" y="985" width="240" height="80" as="geometry" />
        </mxCell>
        <mxCell id="-ml8gp1YGuy2Me6vcU-1-65" value="" style="endArrow=classic;html=1;rounded=0;" parent="1" edge="1">
          <mxGeometry width="50" height="50" relative="1" as="geometry">
            <mxPoint x="125" y="1024.76" as="sourcePoint" />
            <mxPoint x="299.5" y="1024.76" as="targetPoint" />
            <Array as="points" />
          </mxGeometry>
        </mxCell>
        <mxCell id="-ml8gp1YGuy2Me6vcU-1-66" value="Move Package to Unknown" style="edgeLabel;html=1;align=center;verticalAlign=middle;resizable=0;points=[];" parent="-ml8gp1YGuy2Me6vcU-1-65" connectable="0" vertex="1">
          <mxGeometry x="-0.3494" y="1" relative="1" as="geometry">
            <mxPoint x="23" y="1" as="offset" />
          </mxGeometry>
        </mxCell>
        <mxCell id="-ml8gp1YGuy2Me6vcU-1-67" value="" style="html=1;points=[];perimeter=orthogonalPerimeter;strokeColor=#000066;fillColor=#FF8000;fontFamily=Tahoma;fontSize=10;fontColor=#000066;align=center;" parent="1" vertex="1">
          <mxGeometry x="295" y="1025" width="10" height="19" as="geometry" />
        </mxCell>
        <mxCell id="-ml8gp1YGuy2Me6vcU-1-68" value="Opt" style="shape=umlFrame;whiteSpace=wrap;html=1;pointerEvents=0;" parent="1" vertex="1">
          <mxGeometry x="85" y="1075" width="240" height="80" as="geometry" />
        </mxCell>
        <mxCell id="-ml8gp1YGuy2Me6vcU-1-69" value="" style="endArrow=classic;html=1;rounded=0;" parent="1" edge="1">
          <mxGeometry width="50" height="50" relative="1" as="geometry">
            <mxPoint x="125" y="1114.76" as="sourcePoint" />
            <mxPoint x="299.5" y="1114.76" as="targetPoint" />
            <Array as="points">
              <mxPoint x="190" y="1114.76" />
            </Array>
          </mxGeometry>
        </mxCell>
        <mxCell id="-ml8gp1YGuy2Me6vcU-1-70" value="Remove Pending Package/Pick up" style="edgeLabel;html=1;align=center;verticalAlign=middle;resizable=0;points=[];" parent="-ml8gp1YGuy2Me6vcU-1-69" connectable="0" vertex="1">
          <mxGeometry x="-0.3494" y="1" relative="1" as="geometry">
            <mxPoint x="23" y="1" as="offset" />
          </mxGeometry>
        </mxCell>
        <mxCell id="-ml8gp1YGuy2Me6vcU-1-71" value="" style="html=1;points=[];perimeter=orthogonalPerimeter;strokeColor=#000066;fillColor=#FF8000;fontFamily=Tahoma;fontSize=10;fontColor=#000066;align=center;" parent="1" vertex="1">
          <mxGeometry x="295" y="1115" width="10" height="19" as="geometry" />
        </mxCell>
        <mxCell id="-ml8gp1YGuy2Me6vcU-1-78" value="Opt" style="shape=umlFrame;whiteSpace=wrap;html=1;pointerEvents=0;" parent="1" vertex="1">
          <mxGeometry x="60" y="1490" width="290" height="80" as="geometry" />
        </mxCell>
        <mxCell id="-ml8gp1YGuy2Me6vcU-1-79" value="" style="endArrow=classic;html=1;rounded=0;" parent="1" edge="1">
          <mxGeometry width="50" height="50" relative="1" as="geometry">
            <mxPoint x="125" y="1520.26" as="sourcePoint" />
            <mxPoint x="299.5" y="1520.26" as="targetPoint" />
            <Array as="points">
              <mxPoint x="190" y="1520.26" />
            </Array>
          </mxGeometry>
        </mxCell>
        <mxCell id="-ml8gp1YGuy2Me6vcU-1-80" value="Add Package To unknown" style="edgeLabel;html=1;align=center;verticalAlign=middle;resizable=0;points=[];" parent="-ml8gp1YGuy2Me6vcU-1-79" connectable="0" vertex="1">
          <mxGeometry x="-0.3494" y="1" relative="1" as="geometry">
            <mxPoint x="23" y="1" as="offset" />
          </mxGeometry>
        </mxCell>
        <mxCell id="-ml8gp1YGuy2Me6vcU-1-81" value="" style="html=1;points=[];perimeter=orthogonalPerimeter;strokeColor=#000066;fillColor=#FF8000;fontFamily=Tahoma;fontSize=10;fontColor=#000066;align=center;" parent="1" vertex="1">
          <mxGeometry x="295" y="1520.5" width="10" height="19" as="geometry" />
        </mxCell>
        <mxCell id="-ml8gp1YGuy2Me6vcU-1-90" value="Opt" style="shape=umlFrame;whiteSpace=wrap;html=1;pointerEvents=0;" parent="1" vertex="1">
          <mxGeometry x="60" y="1690" width="290" height="70" as="geometry" />
        </mxCell>
        <mxCell id="-ml8gp1YGuy2Me6vcU-1-91" value="Logout/Exit" style="text;html=1;align=center;verticalAlign=middle;resizable=0;points=[];autosize=1;strokeColor=none;fillColor=none;" parent="1" vertex="1">
          <mxGeometry x="165" y="1710" width="80" height="30" as="geometry" />
        </mxCell>
        <mxCell id="iSDgd-j4T-8Xclnr1diN-2" value="Opt" style="shape=umlFrame;whiteSpace=wrap;html=1;pointerEvents=0;" parent="1" vertex="1">
          <mxGeometry x="60" y="1590" width="290" height="80" as="geometry" />
        </mxCell>
        <mxCell id="iSDgd-j4T-8Xclnr1diN-3" value="" style="endArrow=classic;html=1;rounded=0;" parent="1" edge="1">
          <mxGeometry width="50" height="50" relative="1" as="geometry">
            <mxPoint x="125" y="1629.76" as="sourcePoint" />
            <mxPoint x="299.5" y="1629.76" as="targetPoint" />
            <Array as="points">
              <mxPoint x="190" y="1629.76" />
            </Array>
          </mxGeometry>
        </mxCell>
        <mxCell id="iSDgd-j4T-8Xclnr1diN-4" value="Retrive Package History" style="edgeLabel;html=1;align=center;verticalAlign=middle;resizable=0;points=[];" parent="iSDgd-j4T-8Xclnr1diN-3" connectable="0" vertex="1">
          <mxGeometry x="-0.3494" y="1" relative="1" as="geometry">
            <mxPoint x="23" y="1" as="offset" />
          </mxGeometry>
        </mxCell>
        <mxCell id="iSDgd-j4T-8Xclnr1diN-5" value="" style="html=1;points=[];perimeter=orthogonalPerimeter;strokeColor=#000066;fillColor=#FF8000;fontFamily=Tahoma;fontSize=10;fontColor=#000066;align=center;" parent="1" vertex="1">
          <mxGeometry x="295" y="1630" width="10" height="40" as="geometry" />
        </mxCell>
        <mxCell id="HHTyaiDE0E-JpVwCUK6H-5" value="Opt" style="shape=umlFrame;whiteSpace=wrap;html=1;pointerEvents=0;" parent="1" vertex="1">
          <mxGeometry x="60" y="1180" width="290" height="290" as="geometry" />
        </mxCell>
        <mxCell id="HHTyaiDE0E-JpVwCUK6H-6" style="edgeStyle=elbowEdgeStyle;rounded=0;orthogonalLoop=1;jettySize=auto;html=1;elbow=vertical;curved=0;" parent="1" edge="1">
          <mxGeometry relative="1" as="geometry">
            <mxPoint x="125" y="1213.9966666666667" as="sourcePoint" />
            <mxPoint x="299.5000000000002" y="1213.9966666666667" as="targetPoint" />
          </mxGeometry>
        </mxCell>
        <mxCell id="HHTyaiDE0E-JpVwCUK6H-7" value="Add Package" style="edgeLabel;html=1;align=center;verticalAlign=middle;resizable=0;points=[];" parent="HHTyaiDE0E-JpVwCUK6H-6" connectable="0" vertex="1">
          <mxGeometry x="-0.1684" relative="1" as="geometry">
            <mxPoint x="8" y="-10" as="offset" />
          </mxGeometry>
        </mxCell>
        <mxCell id="HHTyaiDE0E-JpVwCUK6H-8" style="edgeStyle=orthogonalEdgeStyle;rounded=0;orthogonalLoop=1;jettySize=auto;html=1;dashed=1;" parent="1" source="HHTyaiDE0E-JpVwCUK6H-10" edge="1">
          <mxGeometry relative="1" as="geometry">
            <mxPoint x="125" y="1234" as="targetPoint" />
            <Array as="points">
              <mxPoint x="160" y="1234" />
              <mxPoint x="160" y="1234" />
            </Array>
          </mxGeometry>
        </mxCell>
        <mxCell id="HHTyaiDE0E-JpVwCUK6H-9" value="Package" style="edgeLabel;html=1;align=center;verticalAlign=middle;resizable=0;points=[];" parent="HHTyaiDE0E-JpVwCUK6H-8" connectable="0" vertex="1">
          <mxGeometry x="-0.1863" y="-1" relative="1" as="geometry">
            <mxPoint x="-21" y="1" as="offset" />
          </mxGeometry>
        </mxCell>
        <mxCell id="HHTyaiDE0E-JpVwCUK6H-10" value="" style="html=1;points=[];perimeter=orthogonalPerimeter;strokeColor=#000066;fillColor=#FF8000;fontFamily=Tahoma;fontSize=10;fontColor=#000066;align=center;" parent="1" vertex="1">
          <mxGeometry x="295" y="1214" width="10" height="19" as="geometry" />
        </mxCell>
        <mxCell id="HHTyaiDE0E-JpVwCUK6H-11" value="Opt" style="shape=umlFrame;whiteSpace=wrap;html=1;pointerEvents=0;" parent="1" vertex="1">
          <mxGeometry x="85" y="1264" width="240" height="80" as="geometry" />
        </mxCell>
        <mxCell id="HHTyaiDE0E-JpVwCUK6H-12" value="" style="endArrow=classic;html=1;rounded=0;" parent="1" edge="1">
          <mxGeometry width="50" height="50" relative="1" as="geometry">
            <mxPoint x="125" y="1303.76" as="sourcePoint" />
            <mxPoint x="299.5" y="1303.76" as="targetPoint" />
            <Array as="points">
              <mxPoint x="190" y="1303.76" />
            </Array>
          </mxGeometry>
        </mxCell>
        <mxCell id="HHTyaiDE0E-JpVwCUK6H-13" value="move package to Unkown" style="edgeLabel;html=1;align=center;verticalAlign=middle;resizable=0;points=[];" parent="HHTyaiDE0E-JpVwCUK6H-12" connectable="0" vertex="1">
          <mxGeometry x="-0.3494" y="1" relative="1" as="geometry">
            <mxPoint x="23" y="1" as="offset" />
          </mxGeometry>
        </mxCell>
        <mxCell id="HHTyaiDE0E-JpVwCUK6H-14" value="" style="html=1;points=[];perimeter=orthogonalPerimeter;strokeColor=#000066;fillColor=#FF8000;fontFamily=Tahoma;fontSize=10;fontColor=#000066;align=center;" parent="1" vertex="1">
          <mxGeometry x="295" y="1304" width="10" height="19" as="geometry" />
        </mxCell>
        <mxCell id="HHTyaiDE0E-JpVwCUK6H-15" value="Opt" style="shape=umlFrame;whiteSpace=wrap;html=1;pointerEvents=0;" parent="1" vertex="1">
          <mxGeometry x="85" y="1360" width="240" height="80" as="geometry" />
        </mxCell>
        <mxCell id="HHTyaiDE0E-JpVwCUK6H-16" value="" style="endArrow=classic;html=1;rounded=0;" parent="1" edge="1">
          <mxGeometry width="50" height="50" relative="1" as="geometry">
            <mxPoint x="125" y="1399.76" as="sourcePoint" />
            <mxPoint x="299.5" y="1399.76" as="targetPoint" />
            <Array as="points">
              <mxPoint x="190" y="1399.76" />
            </Array>
          </mxGeometry>
        </mxCell>
        <mxCell id="HHTyaiDE0E-JpVwCUK6H-17" value="Move Package&lt;br&gt;to pending for pickup" style="edgeLabel;html=1;align=center;verticalAlign=middle;resizable=0;points=[];" parent="HHTyaiDE0E-JpVwCUK6H-16" connectable="0" vertex="1">
          <mxGeometry x="-0.3494" y="1" relative="1" as="geometry">
            <mxPoint x="23" y="1" as="offset" />
          </mxGeometry>
        </mxCell>
        <mxCell id="HHTyaiDE0E-JpVwCUK6H-18" value="" style="html=1;points=[];perimeter=orthogonalPerimeter;strokeColor=#000066;fillColor=#FF8000;fontFamily=Tahoma;fontSize=10;fontColor=#000066;align=center;" parent="1" vertex="1">
          <mxGeometry x="295" y="1400" width="10" height="19" as="geometry" />
        </mxCell>
        <mxCell id="2uzglu1xL04FSJWqG2zA-1" value="" style="endArrow=classic;html=1;rounded=0;exitX=0.25;exitY=0.693;exitDx=0;exitDy=0;exitPerimeter=0;dashed=1;" edge="1" parent="1" source="iSDgd-j4T-8Xclnr1diN-5" target="-ml8gp1YGuy2Me6vcU-1-8">
          <mxGeometry width="50" height="50" relative="1" as="geometry">
            <mxPoint x="230" y="1410" as="sourcePoint" />
            <mxPoint x="280" y="1360" as="targetPoint" />
          </mxGeometry>
        </mxCell>
        <mxCell id="2uzglu1xL04FSJWqG2zA-2" value="Display Package History" style="edgeLabel;html=1;align=center;verticalAlign=middle;resizable=0;points=[];" vertex="1" connectable="0" parent="2uzglu1xL04FSJWqG2zA-1">
          <mxGeometry x="-0.0473" y="3" relative="1" as="geometry">
            <mxPoint x="-10" as="offset" />
          </mxGeometry>
        </mxCell>
      </root>
    </mxGraphModel>
  </diagram>
</mxfile>
